Coordinates
version=1
nRows=6
nColumns=34
inDegrees=yes

Units are S.I. units (second, meters, Newtons, ...)
If the header above contains a line with 'inDegrees', this indicates whether rotational values are in degrees (yes) or radians (no).

endheader
time	pelvis_tilt	pelvis_list	pelvis_rotation	pelvis_tx	pelvis_ty	pelvis_tz	hip_flexion_r	hip_adduction_r	hip_rotation_r	knee_angle_r	ankle_angle_r	subtalar_angle_r	mtp_angle_r	hip_flexion_l	hip_adduction_l	hip_rotation_l	knee_angle_l	ankle_angle_l	subtalar_angle_l	mtp_angle_l	lumbar_extension	lumbar_bending	lumbar_rotation	arm_flex_r	arm_add_r	arm_rot_r	elbow_flex_r	pro_sup_r	arm_flex_l	arm_add_l	arm_rot_l	elbow_flex_l	pro_sup_l
      3.41666670	    -41.57638883	      1.38836742	      0.98331422	      0.42320826	      0.75500506	     -0.05556595	    106.97220028	    -17.15275535	     -5.44319186	     89.31535077	     13.06097735	    -35.00000000	      0.00000000	    105.39072400	    -12.18176198	     -1.57485089	     86.81087016	     25.79437806	    -12.20559550	      0.00000000	    -21.53645258	     -0.39419080	     -9.53519684	    127.23417038	      0.49862254	     26.09230400	     50.52894873	     72.67786188	    137.32121468	     -5.63957471	     50.22556717	     39.82953198	     28.43734109
      3.43333330	    -40.97569314	      1.51535791	      1.33953146	      0.42205219	      0.77152601	     -0.05148552	    104.26234441	    -17.55154840	     -6.02567354	     86.81040536	     12.61457929	    -35.00000000	      0.00000000	    102.56137571	    -11.92257179	     -2.47494562	     84.18837196	     26.13596252	    -11.11175466	      0.00000000	    -21.12970661	     -0.59338276	     -9.49644236	    126.31257436	      0.51650470	     26.36180960	     50.55866888	     73.23568145	    136.03233163	     -4.98789949	     50.14224296	     38.27262410	     28.48560643
      3.45000000	    -40.37101609	      1.49400299	      1.46313327	      0.42347512	      0.79221212	     -0.05104400	    101.35082063	    -17.62694902	     -6.80215516	     83.96744536	     11.95691852	    -35.00000000	      0.00000000	     99.88705913	    -11.74271955	     -3.12453068	     81.47126201	     25.98571618	    -10.76094333	      0.00000000	    -20.57225626	     -0.89921346	     -9.12056953	    125.12274355	      0.31286089	     26.62294977	     50.69828524	     73.37941684	    134.09337805	     -4.74200785	     50.39492965	     37.74541629	     28.51546042
      3.46666670	    -39.79158054	      1.50543900	      1.35271918	      0.42273698	      0.81050265	     -0.05139378	     98.62776081	    -17.34157227	     -7.44270158	     80.95116614	     11.65228535	    -35.00000000	      0.00000000	     97.24960738	    -11.81980277	     -3.90753611	     78.86121026	     26.12458071	     -9.45238665	      0.00000000	    -20.47184175	     -1.30782624	     -8.31138542	    124.86133079	     -0.26536198	     26.51835664	     49.95221772	     73.61033518	    133.30075618	     -3.35099329	     49.98412869	     35.64186377	     28.43134070
      3.48333330	    -39.20779830	      1.68591359	      0.96084258	      0.42966054	      0.83268228	     -0.05276413	     95.64486313	    -16.98454754	     -8.16205280	     77.40875945	     10.54325219	    -35.00000000	      0.00000000	     94.31492687	    -12.12595197	     -4.93601559	     75.86598316	     25.36293384	     -9.28819024	      0.00000000	    -19.81980961	     -1.71672519	     -8.12184314	    122.92490983	     -0.00607720	     26.93790082	     50.18112019	     73.69345102	    131.49560493	     -3.58615658	     50.12726123	     35.31110853	     28.40901225
      3.50000000	    -38.88455343	      1.93802950	      0.26292775	      0.42359514	      0.84858697	     -0.05415443	     93.38473552	    -16.28744936	     -8.48840850	     74.25773943	      9.31690363	    -35.00000000	      0.00000000	     92.11475253	    -12.55506684	     -5.86321341	     73.09516907	     24.57386224	     -9.14326184	      0.00000000	    -19.43126597	     -1.91604969	     -8.71376963	    121.56215660	      1.53449614	     26.47478296	     50.38797495	     73.67430042	    131.57202074	     -3.51952204	     50.12296468	     34.28573541	     28.19502229
